# xmcd
#
# Track frame offsets:
#	150
#	13500
#	26315
#	37910
#	49417
#	61002
#	70732
#	84825
#	97125
#	110907
#	124895
#	139760
#	153262
#	167690
#	181580
#	195472
#	211370
#	222357
#	234417
#	251300
#	265807
#	283670
#	302002
#	317262
#
# Disc length: 4450
#
# Revision: 3
# Processed by: cddbd v1.5.1PL0 Copyright (c) Steve Scherf et al.
# Submitted via: audiograbber 1.80
# Normalized: r1:TSWAP
#
DISCID=3f116018
DTITLE=Various Artist - MCA Song Catalog, Country Vol. 1 (1936-1985)
DYEAR=1900
DGENRE=
TTITLE0=Patsy Montana - I Want To Be A Cowboy's Sweetheart
TTITLE1=Red Foley With Roy Ross - Have I Told You Lately That I Love You
TTITLE2=Hank Williams - My Bucket's Got A Hole In It
TTITLE3=Ray Price - Crazy Arms
TTITLE4=Bill Anderson - The Tips Of My Fingers
TTITLE5=Patsy Cline - Heartaches
TTITLE6=Johnny Cash - Orange Blossom Special
TTITLE7=Jerry Wallace - If You Leave Me Tonight I'll Cry
TTITLE8=George Jones - Loving You Could Never Be Better
TTITLE9=Barbara Fairchild - The Teddy Bear Song
TTITLE10=Jeanne Pruett - Satin Sheets
TTITLE11=George Jones and Tammy Wynette - We're Gonna Hold On
TTITLE12=Tanya Tucker - What's Your Mama's Name
TTITLE13=Tammy Wynette - 'til I Can Make It On My Own
TTITLE14=Emmylou Harris - Two More Bottles Of Wine
TTITLE15=Kenny Rogers - I Don't Need You
TTITLE16=Janie Fricke - Don't Worry 'bout Me Baby
TTITLE17=Shelly West - Jose Cuervo
TTITLE18=Alabama - Roll On (Eighteen Wheeler)
TTITLE19=George Strait - You Look So Good In Love
TTITLE20=The Oak Ridge Boys - Everyday
TTITLE21=Juice Newton - You Make Me Want To Make You Mine
TTITLE22=Alabama - Forty Hour Week (For A Livin')
TTITLE23=Gary Morris - I'll Never Stop Loving You
EXTD=
EXTT0=
EXTT1=
EXTT2=
EXTT3=
EXTT4=
EXTT5=
EXTT6=
EXTT7=
EXTT8=
EXTT9=
EXTT10=
EXTT11=
EXTT12=
EXTT13=
EXTT14=
EXTT15=
EXTT16=
EXTT17=
EXTT18=
EXTT19=
EXTT20=
EXTT21=
EXTT22=
EXTT23=
PLAYORDER=
